<svg width="1920" height="1080" viewBox="0 0 1920 1080" fill="none" xmlns="http://www.w3.org/2000/svg">
<g clip-path="url(#clip0_3837_308927)">
<g transform="matrix(-1 0 0 1 1920 0)">
<rect width="1920" height="1080" fill="#0A0E4A"/>
<path d="M-10 178.4 Q60.0 193.7 120.0 197.1 Q180.0 214.4 240.0 205.8 Q300.0 218.0 360.0 201.6 Q420.0 202.7 480.0 186.7 Q540.0 176.2 600.0 168.5 Q660.0 151.5 720.0 156.0 Q780.0 141.0 840.0 155.4 Q900.0 149.9 960.0 167.0 Q1020.0 173.7 1080.0 185.1 Q1140.0 200.6 1200.0 200.6 Q1260.0 217.3 1320.0 205.9 Q1380.0 215.5 1440.0 198.4 Q1500.0 196.1 1560.0 181.7 Q1620.0 168.7 1680.0 164.2 Q1740.0 146.9 1800.0 154.5 Q1860.0 141.5 1920.0 157.5 Q1980.0 155.3 2040.0 171.7 L1930 1090 L-10 1090 Z" fill="#10154F"/>
<path d="M-10 353.2 Q60.0 354.6 120.0 338.2 Q180.0 328.5 240.0 319.9 Q300.0 303.2 360.0 306.6 Q420.0 291.2 480.0 304.9 Q540.0 298.4 600.0 315.7 Q660.0 321.4 720.0 333.5 Q780.0 348.6 840.0 349.6 Q900.0 366.6 960.0 356.0 Q1020.0 366.4 1080.0 349.4 Q1140.0 348.2 1200.0 333.2 Q1260.0 320.9 1320.0 315.4 Q1380.0 298.2 1440.0 304.8 Q1500.0 291.2 1560.0 306.8 Q1620.0 303.5 1680.0 320.2 Q1740.0 329.0 1800.0 338.5 Q1860.0 354.9 1920.0 352.6 Q1980.0 368.5 2040.0 355.5 L1930 1090 L-10 1090 Z" fill="#161B58"/>
<path d="M-10 458.1 Q60.0 441.5 120.0 454.6 Q180.0 447.1 240.0 464.4 Q300.0 469.1 360.0 482.0 Q420.0 496.5 480.0 498.6 Q540.0 515.7 600.0 506.0 Q660.0 517.2 720.0 500.4 Q780.0 500.2 840.0 484.8 Q900.0 473.2 960.0 466.7 Q1020.0 449.6 1080.0 455.3 Q1140.0 441.0 1200.0 456.1 Q1260.0 451.9 1320.0 468.8 Q1380.0 476.6 1440.0 487.0 Q1500.0 503.1 1560.0 501.8 Q1620.0 518.1 1680.0 505.7 Q1740.0 514.2 1800.0 496.9 Q1860.0 493.3 1920.0 479.7 Q1980.0 465.8 2040.0 462.6 L1930 1090 L-10 1090 Z" fill="#1D2364"/>
<path d="M1444.0 190.0 L1444.5 190.4 L1444.8 191.0 L1445.0 191.6 L1445.0 192.2 L1444.7 192.9 L1444.2 193.6 L1443.5 194.3 L1442.6 194.9 L1441.4 195.4 L1440.0 195.8 L1438.5 196.0 L1436.8 196.1 L1435.0 196.0 L1433.3 195.8 L1431.5 195.3 L1429.9 194.6 L1428.3 193.7 L1427.1 192.6 L1426.0 191.4 L1425.3 190.0 L1425.0 188.5 L1425.0 187.0 L1425.5 185.4 L1426.4 183.9 L1427.7 182.4 L1429.5 181.0 L1431.6 179.8 L1434.1 178.8 L1437.0 178.1 L1440.0 177.6 L1443.2 177.4 L1446.5 177.6 L1449.8 178.1 L1453.0 178.9 L1456.0 180.1 L1458.8 181.5 L1461.2 183.3 L1463.1 185.3 L1464.5 187.6 L1465.4 190.0 L1465.6 192.5 L1465.1 195.1 L1464.0 197.6 L1462.2 200.0 L1459.8 202.3 L1456.8 204.3 L1453.2 206.1 L1449.2 207.5 L1444.7 208.5 L1440.0 209.0 L1435.1 209.1 L1430.2 208.7 L1425.3 207.8 L1420.7 206.5 L1416.4 204.6 L1412.6 202.4 L1409.3 199.7 L1406.7 196.7 L1404.9 193.4 L1404.0 190.0 L1403.9 186.5 L1404.7 182.9 L1406.5 179.4 L1409.1 176.1 L1412.6 173.0 L1416.9 170.3 L1421.9 168.0 L1427.5 166.2 L1433.6 165.0 L1440.0 164.3 L1446.6 164.3 L1453.1 165.0 L1459.5 166.3 L1465.6 168.2 L1471.2 170.7 L1476.1 173.8 L1480.2 177.3 L1483.4 181.3 L1485.6 185.5 L1486.7 190.0 L1486.7 194.6 L1485.5 199.2 L1483.1 203.6 L1479.5 207.8 L1474.9 211.7 L1469.3 215.0 L1462.9 217.9 L1455.8 220.1 L1448.1 221.6 L1440.0 222.3 L1431.8 222.2 L1423.6 221.3 L1415.6 219.6 L1408.1 217.2 L1401.3 214.0 L1395.3 210.1 L1390.3 205.7 L1386.4 200.8 L1383.8 195.5 L1382.6 190.0 L1382.8 184.4 L1384.4 178.8 L1387.4 173.4" fill="none" stroke="#6B74BE" stroke-width="11" stroke-linecap="round" opacity="0.50"/>
<path d="M1743.0 545.0 L1743.4 545.3 L1743.6 545.7 L1743.8 546.2 L1743.7 546.7 L1743.6 547.2 L1743.2 547.7 L1742.7 548.2 L1741.9 548.7 L1741.0 549.1 L1740.0 549.4 L1738.8 549.6 L1737.6 549.7 L1736.2 549.6 L1734.9 549.4 L1733.5 549.0 L1732.3 548.5 L1731.1 547.8 L1730.2 547.0 L1729.4 546.0 L1728.8 545.0 L1728.6 543.9 L1728.6 542.7 L1729.0 541.5 L1729.6 540.3 L1730.7 539.2 L1732.0 538.2 L1733.6 537.3 L1735.5 536.5 L1737.7 535.9 L1740.0 535.5 L1742.4 535.4 L1745.0 535.5 L1747.5 535.9 L1749.9 536.5 L1752.2 537.4 L1754.3 538.5 L1756.1 539.9 L1757.6 541.5 L1758.7 543.2 L1759.3 545.0 L1759.5 546.9 L1759.2 548.9 L1758.3 550.8 L1757.0 552.6 L1755.1 554.4 L1752.8 555.9 L1750.1 557.3 L1747.0 558.3 L1743.6 559.1 L1740.0 559.5 L1736.3 559.6 L1732.5 559.3 L1728.8 558.6 L1725.3 557.6 L1722.0 556.2 L1719.1 554.4 L1716.6 552.4 L1714.6 550.1 L1713.2 547.6 L1712.5 545.0 L1712.4 542.3 L1713.1 539.6 L1714.4 536.9 L1716.4 534.4 L1719.1 532.0 L1722.4 530.0 L1726.2 528.2 L1730.5 526.9 L1735.1 525.9 L1740.0 525.4 L1745.0 525.4 L1750.0 525.9 L1754.9 526.9 L1759.5 528.3 L1763.8 530.3 L1767.5 532.6 L1770.7 535.3 L1773.1 538.3 L1774.8 541.6 L1775.7 545.0 L1775.6 548.5 L1774.7 552.0 L1772.9 555.4 L1770.2 558.6 L1766.7 561.5 L1762.4 564.1 L1757.5 566.3 L1752.0 568.0 L1746.2 569.1 L1740.0 569.6 L1733.7 569.6 L1727.5 568.9 L1721.4 567.6 L1715.7 565.8 L1710.4 563.3" fill="none" stroke="#6B74BE" stroke-width="9" stroke-linecap="round" opacity="0.38"/>
<path d="M453.0 500.0 L453.3 500.3 L453.6 500.7 L453.7 501.2 L453.6 501.6 L453.5 502.1 L453.1 502.6 L452.6 503.1 L451.9 503.5 L451.0 503.9 L450.0 504.2 L448.9 504.4 L447.7 504.4 L446.4 504.4 L445.1 504.2 L443.9 503.8 L442.7 503.3 L441.6 502.6 L440.7 501.9 L440.0 501.0 L439.5 500.0 L439.2 498.9 L439.3 497.8 L439.6 496.7 L440.3 495.6 L441.2 494.6 L442.5 493.6 L444.0 492.7 L445.8 492.0 L447.8 491.5 L450.0 491.1 L452.3 491.0 L454.7 491.1 L457.0 491.5 L459.3 492.1 L461.5 492.9 L463.4 494.0 L465.1 495.2 L466.5 496.7 L467.5 498.3 L468.1 500.0 L468.2 501.8 L467.9 503.6 L467.1 505.4 L465.8 507.1 L464.1 508.8 L462.0 510.2 L459.4 511.4 L456.5 512.4 L453.4 513.1 L450.0 513.5 L446.5 513.6 L443.0 513.3 L439.6 512.7 L436.3 511.7 L433.2 510.4 L430.5 508.8 L428.2 506.9 L426.4 504.8 L425.1 502.4 L424.4 500.0 L424.3 497.5 L424.9 494.9 L426.2 492.5 L428.1 490.1 L430.6 487.9 L433.6 486.0 L437.2 484.4 L441.2 483.1 L445.5 482.2 L450.0 481.8 L454.7 481.8 L459.3 482.2 L463.9 483.1 L468.2 484.5 L472.1 486.3 L475.6 488.5 L478.5 491.0 L480.8 493.8 L482.4 496.8 L483.2 500.0 L483.1 503.3 L482.3 506.5 L480.6 509.7 L478.0 512.6 L474.8 515.4 L470.8 517.8 L466.3 519.8" fill="none" stroke="#6B74BE" stroke-width="8" stroke-linecap="round" opacity="0.34"/>
<path d="M-10 665.6 Q60.0 674.1 120.0 670.9 Q180.0 675.8 240.0 668.3 Q300.0 667.1 360.0 660.2 Q420.0 653.6 480.0 652.0 Q540.0 644.4 600.0 649.0 Q660.0 645.6 720.0 653.4 Q780.0 656.3 840.0 662.2 Q900.0 669.5 960.0 669.5 Q1020.0 676.4 1080.0 670.5 Q1140.0 672.3 1200.0 664.5 Q1260.0 660.1 1320.0 655.6 Q1380.0 647.8 1440.0 649.5 Q1500.0 643.6 1560.0 650.5 Q1620.0 650.3 1680.0 657.7 Q1740.0 663.5 1800.0 666.5 Q1860.0 674.3 1920.0 670.9 Q1980.0 675.6 2040.0 668.1 L1930 1090 L-10 1090 Z" fill="#3B4494"/>
<path d="M-10 794.2 Q60.0 786.9 120.0 782.8 Q180.0 773.2 240.0 776.4 Q300.0 769.2 360.0 777.9 Q420.0 777.2 480.0 786.4 Q540.0 792.7 600.0 796.9 Q660.0 806.5 720.0 803.5 Q780.0 810.9 840.0 802.2 Q900.0 803.1 960.0 793.9 Q1020.0 787.8 1080.0 783.3 Q1140.0 773.7 1200.0 776.6 Q1260.0 769.1 1320.0 777.6 Q1380.0 776.5 1440.0 785.8 Q1500.0 791.8 1560.0 796.4 Q1620.0 806.0 1680.0 803.3 Q1740.0 810.9 1800.0 802.5 Q1860.0 803.8 1920.0 794.5 Q1980.0 788.7 2040.0 783.9 L1930 1090 L-10 1090 Z" fill="#2A3390"/>
<path d="M212.0 770.1 C233.0 805.4 230.0 825.1 230.0 849.1 A30.0 30.0 0 1 0 290.0 849.1 C290.0 825.1 287.0 805.4 308.0 770.1 Z" fill="#3B4494"/>
<path d="M661.6 796.9 C678.4 819.9 676.0 825.3 676.0 844.5 A24.0 24.0 0 1 0 724.0 844.5 C724.0 825.3 721.6 819.9 738.4 796.9 Z" fill="#3B4494"/>
<path d="M1468.8 787.0 C1491.2 831.0 1488.0 864.2 1488.0 889.8 A32.0 32.0 0 1 0 1552.0 889.8 C1552.0 864.2 1548.8 831.0 1571.2 787.0 Z" fill="#3B4494"/>
<g fill="#20276E">
<path d="M250 792 C236 700 262 640 248 552 C240 504 274 490 288 524 C302 564 282 648 292 724 C298 768 290 792 290 792 Z"/>
<path d="M244 630 C198 622 172 584 186 536 C192 514 216 520 212 542 C208 570 224 592 252 600 Z"/>
<path d="M290 586 C334 574 350 532 336 490 C328 470 308 478 314 496 C322 522 312 548 286 556 Z"/>
<path d="M860 794 C852 726 868 686 860 630 C855 598 880 590 890 614 C900 644 886 706 894 762 C898 790 890 794 890 794 Z"/>
<path d="M856 700 C826 694 808 668 818 636 C823 618 838 623 835 640 C832 658 842 672 862 678 Z"/>
</g>
<g fill="#20276E">
<path d="M1090 796 C1082 700 1098 650 1088 570 C1082 532 1112 522 1122 552 C1132 588 1116 664 1124 730 C1128 772 1120 796 1120 796 Z"/>
<path d="M1086 660 C1048 654 1028 620 1038 578 C1043 558 1062 563 1058 582 C1054 606 1066 626 1092 632 Z"/>
<path d="M1122 618 C1158 610 1172 574 1162 536 C1156 518 1138 524 1143 542 C1150 566 1140 588 1116 596 Z"/>
</g>
<g fill="#1F2775">
<path d="M1120 806 C1120 770 1156 746 1200 746 C1244 746 1280 770 1280 806 L1276 812 L1124 812 Z"/>
<path d="M1278 800 C1300 792 1318 798 1322 812 C1325 822 1314 828 1302 824 L1276 816 Z"/>
<circle cx="1318" cy="806" r="11"/>
<rect x="1140" y="810" width="17" height="24" rx="8"/>
<rect x="1236" y="810" width="17" height="24" rx="8"/>
<path d="M1118 806 C1108 802 1100 806 1102 814 L1122 814 Z"/>
</g>
<path d="M-10 895.5 Q60.0 894.0 120.0 900.5 Q180.0 903.5 240.0 907.5 Q300.0 913.7 360.0 913.3 Q420.0 919.6 480.0 914.9 Q540.0 918.3 600.0 911.6 Q660.0 910.4 720.0 905.0 Q780.0 899.8 840.0 898.4 Q900.0 891.8 960.0 895.1 Q1020.0 890.4 1080.0 896.7 Q1140.0 896.2 1200.0 902.4 Q1260.0 906.4 1320.0 909.4 Q1380.0 915.9 1440.0 914.2 Q1500.0 920.0 1560.0 914.5 Q1620.0 916.6 1680.0 910.0 Q1740.0 907.5 1800.0 903.1 Q1860.0 897.1 1920.0 897.1 Q1980.0 890.7 2040.0 895.0 L1930 1090 L-10 1090 Z" fill="#1A2170"/>
<path d="M432.0 908.9 C453.0 945.9 450.0 968.9 450.0 992.9 A30.0 30.0 0 1 0 510.0 992.9 C510.0 968.9 507.0 945.9 528.0 908.9 Z" fill="#2A3390"/>
<path d="M891.6 889.5 C908.4 914.2 906.0 922.9 906.0 942.1 A24.0 24.0 0 1 0 954.0 942.1 C954.0 922.9 951.6 914.2 968.4 889.5 Z" fill="#2A3390"/>
<path d="M1358.4 907.0 C1376.6 937.0 1374.0 952.6 1374.0 973.4 A26.0 26.0 0 1 0 1426.0 973.4 C1426.0 952.6 1423.4 937.0 1441.6 907.0 Z" fill="#2A3390"/>
<path d="M-10 1005 Q480 972 960 995 Q1440 1018 1930 988 L1930 1090 L-10 1090 Z" fill="#0D1148"/>
<path d="M308.0 986.0 C322.0 1004.8 320.0 1008.0 320.0 1024.0 A20.0 20.0 0 1 0 360.0 1024.0 C360.0 1008.0 358.0 1004.8 372.0 986.0 Z" fill="#1A2170"/>
<path d="M1031.2 996.0 C1043.8 1012.7 1042.0 1014.8 1042.0 1029.2 A18.0 18.0 0 1 0 1078.0 1029.2 C1078.0 1014.8 1076.2 1012.7 1088.8 996.0 Z" fill="#1A2170"/>
<path d="M320 125 l1 3 l3 1 l-3 1 l-1 3 Z" fill="white" opacity="0.3"/>
<path d="M900 82 l2 5 l5 2 l-5 2 l-2 5 Z" fill="white" opacity="0.3"/>
<path d="M1250 279 l3 7 l7 3 l-7 3 l-3 7 Z" fill="white" opacity="0.3"/>
<path d="M1660 115 l1 3 l3 1 l-3 1 l-1 3 Z" fill="white" opacity="0.3"/>
<path d="M1810 372 l2 5 l5 2 l-5 2 l-2 5 Z" fill="white" opacity="0.3"/>
<path d="M120 339 l3 7 l7 3 l-7 3 l-3 7 Z" fill="white" opacity="0.3"/>
<path d="M990 205 l1 3 l3 1 l-3 1 l-1 3 Z" fill="white" opacity="0.3"/>
<path d="M60 62 l2 5 l5 2 l-5 2 l-2 5 Z" fill="white" opacity="0.3"/>
<path d="M1360 59 l3 7 l7 3 l-7 3 l-3 7 Z" fill="white" opacity="0.3"/>
<path d="M1550 475 l1 3 l3 1 l-3 1 l-1 3 Z" fill="white" opacity="0.3"/>
<g clip-path="url(#clip1_3837_308927)">
<path d="M1732.79 770.03C1732.79 770.03 1737.41 762.422 1741.55 755.69C1745.7 748.959 1748.72 745.284 1750.63 744.415C1752.55 743.545 1754.86 743.847 1757.17 749.361C1759.47 754.876 1761.63 773.081 1761.63 773.081L1732.79 770.03H1732.79Z" fill="url(#paint39_linear_3837_308927)"/>
<path d="M1703.62 877.348C1754.14 868.759 1805.19 853.204 1820.25 864.99C1835.31 876.775 1858.23 915.406 1830.73 931.121C1803.23 946.835 1818.22 948.846 1818.22 948.846L1850.46 950.828C1850.46 950.828 1855.59 950.944 1864.69 949.488C1882.25 946.674 1903.73 932.933 1911.69 903.422C1922.53 863.187 1905.04 817.004 1846.53 793.476C1786.72 769.43 1720.97 787.975 1706.9 791.904C1692.82 795.832 1674.81 800.743 1674.81 800.743C1674.81 800.743 1680.71 802.052 1684.31 802.381C1687.91 802.707 1692.49 802.707 1692.49 802.707C1692.49 802.707 1654.8 822.822 1637.17 831.19C1617.85 840.355 1592.97 837.081 1592.97 837.081C1592.97 837.081 1625.99 890.55 1703.62 877.349V877.348Z" fill="url(#paint40_linear_3837_308927)"/>
<mask id="mask0_3837_308927" style="mask-type:luminance" maskUnits="userSpaceOnUse" x="1592" y="781" width="323" height="170">
<path d="M1703.62 877.348C1754.14 868.759 1805.19 853.204 1820.25 864.99C1835.31 876.775 1858.23 915.406 1830.73 931.121C1803.23 946.835 1818.22 948.846 1818.22 948.846L1850.46 950.828C1850.46 950.828 1855.59 950.944 1864.69 949.488C1882.25 946.674 1903.73 932.933 1911.69 903.422C1922.53 863.187 1905.04 817.004 1846.53 793.476C1786.72 769.43 1720.97 787.975 1706.9 791.904C1692.82 795.832 1674.81 800.743 1674.81 800.743C1674.81 800.743 1680.71 802.052 1684.31 802.381C1687.91 802.707 1692.49 802.707 1692.49 802.707C1692.49 802.707 1654.8 822.822 1637.17 831.19C1617.85 840.355 1592.97 837.081 1592.97 837.081C1592.97 837.081 1625.99 890.55 1703.62 877.349V877.348Z" fill="white"/>
</mask>
<g mask="url(#mask0_3837_308927)">
<path d="M1847.6 985.605C1894.62 985.605 1932.73 951.233 1932.73 908.833C1932.73 866.433 1894.62 832.061 1847.6 832.061C1800.58 832.061 1762.46 866.433 1762.46 908.833C1762.46 951.233 1800.58 985.605 1847.6 985.605Z" fill="url(#paint41_radial_3837_308927)"/>
<path d="M1739.14 865.885C1744.56 827.675 1677.42 786.558 1589.18 774.046C1500.94 761.535 1425.01 782.368 1419.59 820.578C1414.18 858.788 1481.32 899.906 1569.56 912.417C1657.8 924.928 1733.72 904.095 1739.14 865.885Z" fill="url(#paint42_radial_3837_308927)"/>
</g>
<path d="M1746.68 815.966C1739.64 811.186 1723.54 813.887 1713.94 819.567C1697.9 829.062 1680.19 833.078 1680.19 833.078C1680.19 833.078 1683.81 833.955 1689.23 834.135C1694.14 834.3 1699.05 834.135 1699.05 834.135C1699.05 834.135 1692.28 837.365 1686.44 839.046C1680.61 840.726 1670.24 841.993 1670.24 841.993C1670.24 841.993 1700.52 852.141 1724.58 841.01C1744.81 831.653 1755.85 822.187 1746.68 815.966Z" fill="url(#paint43_linear_3837_308927)"/>
<path d="M1748.12 766.065C1748.12 766.065 1736.22 762.949 1727.63 769.792C1720.77 775.265 1709.77 774.864 1701.92 773.99C1694.55 773.172 1692.47 779.064 1695.62 785.186C1697.5 788.839 1700.36 794.277 1713.35 801.979C1723.71 808.125 1731.46 810.874 1731.95 823.554C1732.48 837.32 1732.43 867.822 1743.35 894.673C1749.54 909.905 1752.78 921.953 1754.38 929.148C1755.28 933.17 1753.56 937.293 1750.14 939.582C1747.71 941.203 1745.53 943.296 1746.01 945.379C1746.86 948.975 1749.12 950.163 1752.19 950.163C1755.25 950.163 1850.46 950.827 1850.46 950.827C1850.46 950.827 1853.38 919.805 1848.48 898.114C1845.17 883.436 1836.53 864.118 1815.07 851.523C1794.19 839.266 1790.43 838.608 1786.23 815.516C1783.01 797.782 1784.35 793.555 1779.94 775.399C1776.51 761.295 1773.23 753.563 1770.76 747.826C1769.1 743.959 1765.99 742.967 1761.95 747.151C1753.94 755.465 1748.12 766.065 1748.12 766.065H1748.12Z" fill="url(#paint44_linear_3837_308927)"/>
<mask id="mask1_3837_308927" style="mask-type:luminance" maskUnits="userSpaceOnUse" x="1694" y="744" width="158" height="207">
<path d="M1748.12 766.065C1748.12 766.065 1736.22 762.949 1727.63 769.792C1720.77 775.265 1709.77 774.864 1701.92 773.99C1694.55 773.172 1692.47 779.064 1695.62 785.186C1697.5 788.839 1700.36 794.277 1713.35 801.979C1723.71 808.125 1731.46 810.874 1731.95 823.554C1732.48 837.32 1732.43 867.822 1743.35 894.673C1749.54 909.905 1752.78 921.953 1754.38 929.148C1755.28 933.17 1753.56 937.293 1750.14 939.582C1747.71 941.203 1745.53 943.296 1746.01 945.379C1746.86 948.975 1749.12 950.163 1752.19 950.163C1755.25 950.163 1850.46 950.827 1850.46 950.827C1850.46 950.827 1853.38 919.805 1848.48 898.114C1845.17 883.436 1836.53 864.118 1815.07 851.523C1794.19 839.266 1790.43 838.608 1786.23 815.516C1783.01 797.782 1784.35 793.555 1779.94 775.399C1776.51 761.295 1773.23 753.563 1770.76 747.826C1769.1 743.959 1765.99 742.967 1761.95 747.151C1753.94 755.465 1748.12 766.065 1748.12 766.065H1748.12Z" fill="white"/>
</mask>
<g mask="url(#mask1_3837_308927)">
<path d="M1824.73 880.865C1824.73 880.865 1799.21 880.99 1788.88 902.686C1782.76 915.531 1787.15 925.648 1787.15 925.648C1787.15 925.648 1785.56 929.049 1795.58 942.531C1805.6 956.013 1825.67 967.145 1825.67 967.145L1877.68 883.456L1824.74 880.865H1824.73Z" fill="url(#paint45_radial_3837_308927)"/>
<path opacity="0.6" d="M1713.85 783.302C1719.37 785.044 1724.49 786.657 1729.51 787.317C1736.16 788.192 1743.2 787.995 1751.28 789.522C1759.36 791.05 1763.28 793.232 1766.67 796.07C1770.05 798.908 1769.29 800.749 1766.56 800.654C1765.37 800.614 1763.63 799.778 1763.28 800.614C1762.95 801.403 1764.17 801.664 1765.45 802.5C1766.35 803.083 1767.08 804.182 1766.46 805.414C1765.8 806.736 1764.33 807.436 1761.54 806.874C1758.94 806.35 1758.65 806.049 1758.38 806.463C1758.07 806.93 1760.24 807.588 1761.33 808.679C1762.42 809.769 1762.2 812.657 1757.28 812.003C1752.37 811.348 1745.94 807.856 1742.33 810.147C1738.73 812.439 1736 819.532 1734.7 829.462C1733.39 839.392 1734.8 868.311 1734.8 868.311L1686.35 789.412L1694.65 781.01L1713.85 783.301L1713.85 783.302Z" fill="url(#paint46_linear_3837_308927)"/>
<path d="M1764.87 933.758C1765.25 928.077 1762.74 917.289 1760.04 908.662C1756.92 898.646 1753.39 891.186 1752.99 890.338L1752.43 902.165L1731.8 874.502C1733.22 879.294 1725.47 954.219 1728.53 954.219C1730.44 954.219 1758.5 951.626 1761.95 951.626C1761.97 947.794 1764.34 941.659 1764.87 933.756L1764.87 933.758Z" fill="url(#paint47_linear_3837_308927)"/>
<path d="M1780.34 913.349C1783.37 889.325 1783.61 877.152 1783.61 877.152C1783.61 877.152 1781.81 886.319 1780.66 890.411C1779.06 896.133 1778.21 899.578 1778.21 899.578L1771.5 879.608L1768.71 900.56L1764.3 890.902C1764.3 890.902 1764.66 899.139 1764.69 908.614C1764.73 919.76 1764 935.47 1763.26 937.838C1761.91 942.149 1756.27 942.08 1756.09 946.06C1755.99 948.167 1757.88 950.669 1760.07 951.085C1763.64 951.085 1766.23 951.728 1769.15 951.832C1775.68 952.065 1775.8 942.639 1776.44 938.916C1776.56 937.418 1779.24 922.053 1780.34 913.347L1780.34 913.349Z" fill="url(#paint48_linear_3837_308927)"/>
<path d="M1824.51 936.828C1806.67 940.502 1780.22 939.413 1775.5 940.812C1769.3 942.648 1768.85 946.777 1770.25 949.558C1771.35 951.727 1774.01 951.329 1781.51 951.329C1791.4 951.329 1834.14 952.641 1841.31 952.221C1852.17 951.582 1856.2 930.304 1824.51 936.828H1824.51Z" fill="url(#paint49_linear_3837_308927)"/>
<path d="M1850.42 989.997C1878.82 989.997 1901.85 969.233 1901.85 943.618C1901.85 918.003 1878.82 897.238 1850.42 897.238C1822.01 897.238 1798.99 918.003 1798.99 943.618C1798.99 969.233 1822.01 989.997 1850.42 989.997Z" fill="url(#paint50_radial_3837_308927)"/>
<path opacity="0.6" d="M1979.37 929.533C2015.32 874.329 1999.72 800.446 1944.53 764.51C1889.34 728.574 1815.46 744.193 1779.51 799.397C1743.57 854.6 1759.17 928.483 1814.36 964.419C1869.55 1000.36 1943.43 984.736 1979.37 929.533Z" fill="url(#paint51_radial_3837_308927)"/>
<path opacity="0.6" d="M1741.87 838.193C1741.87 838.193 1741.8 846.777 1742.69 855.217C1744.2 869.582 1748.23 881.307 1751.2 886.973C1760.2 904.16 1764.46 926.585 1764.46 926.585C1764.46 926.585 1766.42 876.987 1759.55 860.454C1754.53 848.388 1744.07 838.193 1741.87 838.193Z" fill="url(#paint52_linear_3837_308927)"/>
<path d="M1689.99 775.817C1693.45 772.845 1697.98 769.795 1700.65 772.274C1703.31 774.752 1704.16 777.267 1707.99 779.972C1710.97 782.072 1713.58 783.06 1715.86 783.821C1720.06 785.22 1721.46 787.32 1716.39 790.818C1710.33 794.998 1701.21 794.686 1695.43 790.071C1689.66 785.455 1689.98 775.819 1689.98 775.819L1689.99 775.817Z" fill="#FFC300"/>
<path d="M1689.21 772.379C1688.31 773.802 1689.01 777.79 1691.72 779.401C1694.85 781.259 1698.36 779.627 1699.06 778.445C1699.93 776.973 1700.04 774.414 1696.1 772.174C1691.93 769.809 1690.12 770.955 1689.21 772.379Z" fill="#000741"/>
</g>
<path d="M1729.7 773.989L1728.45 776.83C1727.71 778.491 1728.55 780.424 1730.27 781.019L1731.03 781.281C1732.79 781.891 1734.69 780.824 1735.08 779.005L1735.74 775.956C1736.09 774.361 1735.18 772.761 1733.63 772.246C1732.07 771.726 1730.36 772.481 1729.7 773.987V773.989Z" fill="url(#paint53_linear_3837_308927)"/>
<path d="M1731.28 776.234C1731.95 776.234 1732.5 775.689 1732.5 775.016C1732.5 774.342 1731.95 773.797 1731.28 773.797C1730.61 773.797 1730.06 774.342 1730.06 775.016C1730.06 775.689 1730.61 776.234 1731.28 776.234Z" fill="white"/>
</g>
</g>
</g>
<defs>
<linearGradient id="paint0_linear_3837_308927" x1="960.056" y1="535.632" x2="960.056" y2="-144.759" gradientUnits="userSpaceOnUse">
<stop offset="0.24" stop-color="#D7DBFC" stop-opacity="0"/>
<stop offset="0.29" stop-color="#D2D6FB" stop-opacity="0.19"/>
<stop offset="0.38" stop-color="#CCCFFA" stop-opacity="0.43"/>
<stop offset="0.45" stop-color="#C7CAFA" stop-opacity="0.64"/>
<stop offset="0.53" stop-color="#C3C5F9" stop-opacity="0.79"/>
<stop offset="0.59" stop-color="#C1C3F9" stop-opacity="0.91"/>
<stop offset="0.65" stop-color="#BFC2F9" stop-opacity="0.98"/>
<stop offset="0.7" stop-color="#BFC2F9"/>
</linearGradient>
<linearGradient id="paint1_linear_3837_308927" x1="1264.91" y1="859.363" x2="562.548" y2="584.098" gradientUnits="userSpaceOnUse">
<stop offset="0.06" stop-color="#D4D4F4"/>
<stop offset="0.37" stop-color="#B4B7F8"/>
<stop offset="1" stop-color="#9DA5F3"/>
</linearGradient>
<linearGradient id="paint2_linear_3837_308927" x1="1655.78" y1="595.75" x2="282.124" y2="1233.79" gradientUnits="userSpaceOnUse">
<stop offset="0.07" stop-color="#C0C3F9" stop-opacity="0.8"/>
<stop offset="0.13" stop-color="#BEC1F8" stop-opacity="0.78"/>
<stop offset="0.2" stop-color="#BBBFF8" stop-opacity="0.73"/>
<stop offset="0.27" stop-color="#B5B9F7" stop-opacity="0.64"/>
<stop offset="0.35" stop-color="#ADB3F5" stop-opacity="0.52"/>
<stop offset="0.42" stop-color="#A3ABF4" stop-opacity="0.36"/>
<stop offset="0.49" stop-color="#97A1F1" stop-opacity="0.17"/>
<stop offset="0.55" stop-color="#8D99F0" stop-opacity="0"/>
</linearGradient>
<linearGradient id="paint3_linear_3837_308927" x1="1716.76" y1="1107.05" x2="1227.07" y2="309.239" gradientUnits="userSpaceOnUse">
<stop offset="0.13" stop-color="#FBC7D4" stop-opacity="0.9"/>
<stop offset="0.48" stop-color="#D1CDF1" stop-opacity="0.97"/>
<stop offset="0.7" stop-color="#D1D2F9"/>
</linearGradient>
<radialGradient id="paint4_radial_3837_308927" cx="0" cy="0" r="1" gradientUnits="userSpaceOnUse" gradientTransform="translate(1977.16 1058.31) scale(1155.23 1155.23)">
<stop offset="0.17" stop-color="#FBC7D4" stop-opacity="0"/>
<stop offset="0.26" stop-color="#FAC7D4" stop-opacity="0.02"/>
<stop offset="0.35" stop-color="#F9C9D7" stop-opacity="0.06"/>
<stop offset="0.44" stop-color="#F7CBDB" stop-opacity="0.14"/>
<stop offset="0.53" stop-color="#F5CFE1" stop-opacity="0.25"/>
<stop offset="0.61" stop-color="#F2D4E8" stop-opacity="0.39"/>
<stop offset="0.7" stop-color="#DADAF2" stop-opacity="0.55"/>
<stop offset="0.76" stop-color="#DFE2FA" stop-opacity="0.7"/>
</radialGradient>
<linearGradient id="paint5_linear_3837_308927" x1="1662.15" y1="991.387" x2="120.105" y2="991.387" gradientUnits="userSpaceOnUse">
<stop offset="0.02" stop-color="#F0B3CD"/>
<stop offset="0.25" stop-color="#EAB8E1"/>
<stop offset="0.5" stop-color="#BDBEF2"/>
<stop offset="0.7" stop-color="#BFC2F9"/>
</linearGradient>
<linearGradient id="paint6_linear_3837_308927" x1="941.629" y1="652.618" x2="968.363" y2="1458.57" gradientUnits="userSpaceOnUse">
<stop offset="0.15" stop-color="#DFE2FA"/>
<stop offset="0.23" stop-color="#D8DBF9" stop-opacity="0.81"/>
<stop offset="0.34" stop-color="#D1D4F9" stop-opacity="0.56"/>
<stop offset="0.44" stop-color="#CACCF9" stop-opacity="0.36"/>
<stop offset="0.54" stop-color="#C5C7F9" stop-opacity="0.21"/>
<stop offset="0.64" stop-color="#C1C3F9" stop-opacity="0.09"/>
<stop offset="0.72" stop-color="#BFC2F9" stop-opacity="0.02"/>
<stop offset="0.77" stop-color="#BFC2F9" stop-opacity="0"/>
</linearGradient>
<linearGradient id="paint7_linear_3837_308927" x1="956.05" y1="617.438" x2="956.05" y2="1368.63" gradientUnits="userSpaceOnUse">
<stop offset="0.24" stop-color="#D6DAFB" stop-opacity="0.03"/>
<stop offset="0.28" stop-color="#D1D4FB" stop-opacity="0.23"/>
<stop offset="0.31" stop-color="#CDD0FA" stop-opacity="0.42"/>
<stop offset="0.35" stop-color="#C9CCFA" stop-opacity="0.57"/>
<stop offset="0.39" stop-color="#C6C9F9" stop-opacity="0.71"/>
<stop offset="0.43" stop-color="#C3C5F9" stop-opacity="0.81"/>
<stop offset="0.48" stop-color="#C1C3F9" stop-opacity="0.9"/>
<stop offset="0.53" stop-color="#C0C2F9" stop-opacity="0.96"/>
<stop offset="0.6" stop-color="#BFC2F9" stop-opacity="0.99"/>
<stop offset="0.7" stop-color="#BFC2F9"/>
</linearGradient>
<linearGradient id="paint8_linear_3837_308927" x1="109.129" y1="715.474" x2="-59.7357" y2="451.116" gradientUnits="userSpaceOnUse">
<stop offset="0.11" stop-color="#FB2970"/>
<stop offset="0.23" stop-color="#FB3755"/>
<stop offset="0.43" stop-color="#FF6600"/>
<stop offset="0.71" stop-color="#FFC635"/>
<stop offset="0.99" stop-color="#FFEB49"/>
</linearGradient>
<linearGradient id="paint9_linear_3837_308927" x1="228.938" y1="641.246" x2="220.154" y2="632.293" gradientUnits="userSpaceOnUse">
<stop offset="0.43" stop-color="#FF6600"/>
<stop offset="0.55" stop-color="#FE6403"/>
<stop offset="0.65" stop-color="#FE5E0E"/>
<stop offset="0.75" stop-color="#FD5420"/>
<stop offset="0.85" stop-color="#FC463A"/>
<stop offset="0.94" stop-color="#FB345B"/>
<stop offset="1" stop-color="#FB2872"/>
</linearGradient>
<linearGradient id="paint10_linear_3837_308927" x1="161.397" y1="663.357" x2="113.426" y2="690.639" gradientUnits="userSpaceOnUse">
<stop offset="0.24" stop-color="#BE0449"/>
<stop offset="0.45" stop-color="#D20F56"/>
<stop offset="0.8" stop-color="#EF216A"/>
<stop offset="1" stop-color="#FB2872"/>
</linearGradient>
<linearGradient id="paint11_linear_3837_308927" x1="217.199" y1="672.185" x2="259.127" y2="692.776" gradientUnits="userSpaceOnUse">
<stop offset="0.01" stop-color="#BE0449"/>
<stop offset="0.28" stop-color="#D20F56"/>
<stop offset="0.74" stop-color="#EF216A"/>
<stop offset="1" stop-color="#FB2872"/>
</linearGradient>
<linearGradient id="paint12_linear_3837_308927" x1="84.8556" y1="653.448" x2="230.163" y2="653.786" gradientUnits="userSpaceOnUse">
<stop stop-color="#FF6600" stop-opacity="0"/>
<stop offset="0.1" stop-color="#FB2970" stop-opacity="0.1"/>
<stop offset="0.35" stop-color="#FF6600"/>
<stop offset="0.48" stop-color="#FF6600"/>
<stop offset="1" stop-color="#FF6600"/>
</linearGradient>
<radialGradient id="paint13_radial_3837_308927" cx="0" cy="0" r="1" gradientUnits="userSpaceOnUse" gradientTransform="translate(183.257 620.317) scale(61.1842 61.1842)">
<stop offset="0.28" stop-color="#FFEB49" stop-opacity="0.5"/>
<stop offset="0.58" stop-color="#FFEB49" stop-opacity="0.29"/>
<stop offset="0.73" stop-color="#FFEB49" stop-opacity="0.2"/>
<stop offset="0.83" stop-color="#FFEB49" stop-opacity="0.12"/>
<stop offset="0.94" stop-color="#FFEB49" stop-opacity="0"/>
</radialGradient>
<linearGradient id="paint14_linear_3837_308927" x1="180.756" y1="692.155" x2="181.909" y2="581.805" gradientUnits="userSpaceOnUse">
<stop offset="0.2" stop-color="#FB2872"/>
<stop offset="0.24" stop-color="#FC3D4B" stop-opacity="0.66"/>
<stop offset="0.29" stop-color="#FD5223" stop-opacity="0.31"/>
<stop offset="0.32" stop-color="#FE6009" stop-opacity="0.09"/>
<stop offset="0.33" stop-color="#FF6600" stop-opacity="0"/>
</linearGradient>
<linearGradient id="paint15_linear_3837_308927" x1="157.983" y1="661.88" x2="107.959" y2="673.42" gradientUnits="userSpaceOnUse">
<stop stop-color="#FA2771" stop-opacity="0.02"/>
<stop offset="0.1" stop-color="#F2256D" stop-opacity="0.25"/>
<stop offset="0.19" stop-color="#EB2369" stop-opacity="0.45"/>
<stop offset="0.28" stop-color="#E52266" stop-opacity="0.62"/>
<stop offset="0.38" stop-color="#E02164" stop-opacity="0.76"/>
<stop offset="0.48" stop-color="#DC2062" stop-opacity="0.87"/>
<stop offset="0.6" stop-color="#DA1F61" stop-opacity="0.94"/>
<stop offset="0.72" stop-color="#D81F60" stop-opacity="0.99"/>
<stop offset="0.88" stop-color="#D81F60"/>
</linearGradient>
<linearGradient id="paint16_linear_3837_308927" x1="236.231" y1="645.707" x2="234.02" y2="648.917" gradientUnits="userSpaceOnUse">
<stop offset="0.16" stop-color="#3130B9"/>
<stop offset="0.88" stop-color="#00073A"/>
</linearGradient>
<linearGradient id="paint17_linear_3837_308927" x1="210.201" y1="662.386" x2="247.898" y2="677.608" gradientUnits="userSpaceOnUse">
<stop stop-color="#FB2872" stop-opacity="0"/>
<stop offset="0.19" stop-color="#EF256C" stop-opacity="0.32"/>
<stop offset="0.41" stop-color="#E32165" stop-opacity="0.68"/>
<stop offset="0.57" stop-color="#DB1F61" stop-opacity="0.91"/>
<stop offset="0.65" stop-color="#D81F60"/>
</linearGradient>
<linearGradient id="paint18_linear_3837_308927" x1="227.758" y1="651.339" x2="222.53" y2="682.514" gradientUnits="userSpaceOnUse">
<stop stop-color="#FFEB49"/>
<stop offset="0.06" stop-color="#FED84C" stop-opacity="0.9"/>
<stop offset="0.21" stop-color="#FDAA56" stop-opacity="0.67"/>
<stop offset="0.35" stop-color="#FC825E" stop-opacity="0.46"/>
<stop offset="0.5" stop-color="#FC6265" stop-opacity="0.3"/>
<stop offset="0.64" stop-color="#FB486B" stop-opacity="0.17"/>
<stop offset="0.77" stop-color="#FB366E" stop-opacity="0.08"/>
<stop offset="0.89" stop-color="#FB2B71" stop-opacity="0.02"/>
<stop offset="1" stop-color="#FB2872" stop-opacity="0"/>
</linearGradient>
<linearGradient id="paint19_linear_3837_308927" x1="221.039" y1="642.091" x2="216.26" y2="630.101" gradientUnits="userSpaceOnUse">
<stop stop-color="#FF6600" stop-opacity="0"/>
<stop offset="0.19" stop-color="#FF6600" stop-opacity="0.31"/>
<stop offset="0.58" stop-color="#FF6600"/>
<stop offset="0.62" stop-color="#FE5B12"/>
<stop offset="0.74" stop-color="#FC453B"/>
<stop offset="0.85" stop-color="#FB3559"/>
<stop offset="0.94" stop-color="#FB2B6B"/>
<stop offset="1" stop-color="#FB2872"/>
</linearGradient>
<linearGradient id="paint20_linear_3837_308927" x1="186.716" y1="665.663" x2="181.445" y2="705.82" gradientUnits="userSpaceOnUse">
<stop stop-color="#FFEB49"/>
<stop offset="0.37" stop-color="#FFEB49" stop-opacity="0.59"/>
<stop offset="0.68" stop-color="#FFEB49" stop-opacity="0.27"/>
<stop offset="0.89" stop-color="#FFEB49" stop-opacity="0.08"/>
<stop offset="1" stop-color="#FFEB49" stop-opacity="0"/>
</linearGradient>
<radialGradient id="paint21_radial_3837_308927" cx="0" cy="0" r="1" gradientUnits="userSpaceOnUse" gradientTransform="translate(-112.811 281.225) scale(306.792 306.792)">
<stop offset="0.07" stop-color="#FB2872"/>
<stop offset="0.17" stop-color="#FB2872" stop-opacity="0.83"/>
<stop offset="0.34" stop-color="#FB2872" stop-opacity="0.58"/>
<stop offset="0.51" stop-color="#FB2872" stop-opacity="0.37"/>
<stop offset="0.66" stop-color="#FB2872" stop-opacity="0.21"/>
<stop offset="0.8" stop-color="#FB2872" stop-opacity="0.1"/>
<stop offset="0.91" stop-color="#FB2872" stop-opacity="0.03"/>
<stop offset="1" stop-color="#FB2872" stop-opacity="0"/>
</radialGradient>
<radialGradient id="paint22_radial_3837_308927" cx="0" cy="0" r="1" gradientUnits="userSpaceOnUse" gradientTransform="translate(80.6501 653.573) scale(118.728)">
<stop stop-color="#FB2872"/>
<stop offset="1" stop-color="#FB2872" stop-opacity="0.07"/>
</radialGradient>
<radialGradient id="paint23_radial_3837_308927" cx="0" cy="0" r="1" gradientUnits="userSpaceOnUse" gradientTransform="translate(-98.521 768.87) rotate(113.61) scale(24.254 36.9935)">
<stop stop-color="#FFEB49"/>
<stop offset="1" stop-color="#FFEB49" stop-opacity="0"/>
</radialGradient>
<radialGradient id="paint24_radial_3837_308927" cx="0" cy="0" r="1" gradientUnits="userSpaceOnUse" gradientTransform="translate(-112.813 281.223) scale(306.792 306.792)">
<stop offset="0.07" stop-color="#FB2872"/>
<stop offset="0.17" stop-color="#FB2872" stop-opacity="0.83"/>
<stop offset="0.34" stop-color="#FB2872" stop-opacity="0.58"/>
<stop offset="0.51" stop-color="#FB2872" stop-opacity="0.37"/>
<stop offset="0.66" stop-color="#FB2872" stop-opacity="0.21"/>
<stop offset="0.8" stop-color="#FB2872" stop-opacity="0.1"/>
<stop offset="0.91" stop-color="#FB2872" stop-opacity="0.03"/>
<stop offset="1" stop-color="#FB2872" stop-opacity="0"/>
</radialGradient>
<radialGradient id="paint25_radial_3837_308927" cx="0" cy="0" r="1" gradientUnits="userSpaceOnUse" gradientTransform="translate(-72.7094 806.906) rotate(113.61) scale(24.254 39.6883)">
<stop stop-color="#FFEB49"/>
<stop offset="1" stop-color="#FFEB49" stop-opacity="0"/>
</radialGradient>
<linearGradient id="paint26_linear_3837_308927" x1="-46.1602" y1="470.977" x2="-26.0606" y2="626.277" gradientUnits="userSpaceOnUse">
<stop stop-color="#FFEB49" stop-opacity="0.8"/>
<stop offset="0.91" stop-color="#FFEB49" stop-opacity="0"/>
</linearGradient>
<linearGradient id="paint27_linear_3837_308927" x1="949.776" y1="60.4205" x2="949.776" y2="1031.23" gradientUnits="userSpaceOnUse">
<stop stop-color="#0F186E" stop-opacity="0"/>
<stop offset="0.45" stop-color="#4451B7" stop-opacity="0.5"/>
<stop offset="0.68" stop-color="#5C6BD9" stop-opacity="0.72"/>
<stop offset="0.7" stop-color="#5C6CDA" stop-opacity="0.74"/>
<stop offset="0.9" stop-color="#6474E4" stop-opacity="0.93"/>
<stop offset="1" stop-color="#6878E9"/>
</linearGradient>
<linearGradient id="paint28_linear_3837_308927" x1="750.55" y1="-135.583" x2="1070.75" y2="1253.1" gradientUnits="userSpaceOnUse">
<stop stop-color="#6878E9"/>
<stop offset="0.02" stop-color="#6373E2"/>
<stop offset="0.2" stop-color="#4552B9"/>
<stop offset="0.38" stop-color="#2D3898"/>
<stop offset="0.54" stop-color="#1C2681"/>
<stop offset="0.7" stop-color="#121B72"/>
<stop offset="0.83" stop-color="#0F186E"/>
</linearGradient>
<linearGradient id="paint29_linear_3837_308927" x1="1497.09" y1="126.854" x2="1510.62" y2="1551.64" gradientUnits="userSpaceOnUse">
<stop offset="0.09" stop-color="#879CF0" stop-opacity="0.6"/>
<stop offset="0.56" stop-color="#334095" stop-opacity="0.18"/>
<stop offset="0.78" stop-color="#0F186E" stop-opacity="0"/>
</linearGradient>
<linearGradient id="paint30_linear_3837_308927" x1="1679.38" y1="1007.07" x2="97.1571" y2="1007.07" gradientUnits="userSpaceOnUse">
<stop offset="0.02" stop-color="#F0B3CD"/>
<stop offset="0.25" stop-color="#EAB8E1"/>
<stop offset="0.5" stop-color="#BDBEF2"/>
<stop offset="0.7" stop-color="#BFC2F9"/>
</linearGradient>
<linearGradient id="paint31_linear_3837_308927" x1="954.832" y1="699.006" x2="954.832" y2="1481.59" gradientUnits="userSpaceOnUse">
<stop offset="0.04" stop-color="#596BC1"/>
<stop offset="0.17" stop-color="#4858B4"/>
<stop offset="0.43" stop-color="#2B399D"/>
<stop offset="0.59" stop-color="#202C95"/>
</linearGradient>
<linearGradient id="paint32_linear_3837_308927" x1="959.215" y1="878.706" x2="959.215" y2="1341.85" gradientUnits="userSpaceOnUse">
<stop stop-color="#030840" stop-opacity="0"/>
<stop offset="0.18" stop-color="#030840" stop-opacity="0.34"/>
<stop offset="0.42" stop-color="#030840" stop-opacity="0.7"/>
<stop offset="0.65" stop-color="#030840" stop-opacity="0.92"/>
<stop offset="0.85" stop-color="#030840"/>
</linearGradient>
<linearGradient id="paint33_linear_3837_308927" x1="122.045" y1="483.376" x2="187.075" y2="296.452" gradientUnits="userSpaceOnUse">
<stop stop-color="#E6E6E6"/>
<stop offset="0.16" stop-color="#AFB6E7"/>
<stop offset="0.33" stop-color="#7C8AE8"/>
<stop offset="0.41" stop-color="#6878E9"/>
<stop offset="0.5" stop-color="#6878E9" stop-opacity="0.74"/>
<stop offset="0.58" stop-color="#6878E9" stop-opacity="0.52"/>
<stop offset="0.66" stop-color="#6878E9" stop-opacity="0.33"/>
<stop offset="0.74" stop-color="#6878E9" stop-opacity="0.19"/>
<stop offset="0.82" stop-color="#6878E9" stop-opacity="0.08"/>
<stop offset="0.89" stop-color="#6878E9" stop-opacity="0.02"/>
<stop offset="0.95" stop-color="#6878E9" stop-opacity="0"/>
</linearGradient>
<linearGradient id="paint34_linear_3837_308927" x1="949.776" y1="-1.07363" x2="949.776" y2="969.731" gradientUnits="userSpaceOnUse">
<stop stop-color="#0F186E" stop-opacity="0"/>
<stop offset="0.45" stop-color="#4451B7" stop-opacity="0.5"/>
<stop offset="0.68" stop-color="#5C6BD9" stop-opacity="0.72"/>
<stop offset="0.7" stop-color="#5C6CDA" stop-opacity="0.74"/>
<stop offset="0.9" stop-color="#6474E4" stop-opacity="0.93"/>
<stop offset="1" stop-color="#6878E9"/>
</linearGradient>
<linearGradient id="paint35_linear_3837_308927" x1="750.55" y1="-197.075" x2="1070.75" y2="1191.61" gradientUnits="userSpaceOnUse">
<stop stop-color="#6878E9"/>
<stop offset="0.02" stop-color="#6373E2"/>
<stop offset="0.2" stop-color="#4552B9"/>
<stop offset="0.38" stop-color="#2D3898"/>
<stop offset="0.54" stop-color="#1C2681"/>
<stop offset="0.7" stop-color="#121B72"/>
<stop offset="0.83" stop-color="#0F186E"/>
</linearGradient>
<linearGradient id="paint36_linear_3837_308927" x1="1497.09" y1="65.3598" x2="1510.62" y2="1490.15" gradientUnits="userSpaceOnUse">
<stop offset="0.09" stop-color="#879CF0" stop-opacity="0.6"/>
<stop offset="0.56" stop-color="#334095" stop-opacity="0.18"/>
<stop offset="0.78" stop-color="#0F186E" stop-opacity="0"/>
</linearGradient>
<linearGradient id="paint37_linear_3837_308927" x1="1679.37" y1="945.571" x2="97.1571" y2="945.571" gradientUnits="userSpaceOnUse">
<stop offset="0.02" stop-color="#F0B3CD"/>
<stop offset="0.25" stop-color="#EAB8E1"/>
<stop offset="0.5" stop-color="#BDBEF2"/>
<stop offset="0.7" stop-color="#BFC2F9"/>
</linearGradient>
<linearGradient id="paint38_linear_3837_308927" x1="954.832" y1="637.512" x2="954.832" y2="1420.1" gradientUnits="userSpaceOnUse">
<stop offset="0.04" stop-color="#596BC1"/>
<stop offset="0.17" stop-color="#4858B4"/>
<stop offset="0.43" stop-color="#2B399D"/>
<stop offset="0.59" stop-color="#202C95"/>
</linearGradient>
<linearGradient id="paint39_linear_3837_308927" x1="1742.52" y1="810.235" x2="1755.61" y2="702.209" gradientUnits="userSpaceOnUse">
<stop stop-color="#F14F00"/>
<stop offset="0.4" stop-color="#FA9F03"/>
<stop offset="0.63" stop-color="#F14F00"/>
<stop offset="1" stop-color="#ED0B5B"/>
</linearGradient>
<linearGradient id="paint40_linear_3837_308927" x1="1592.97" y1="866.101" x2="1993.46" y2="866.101" gradientUnits="userSpaceOnUse">
<stop stop-color="#FFBB0D"/>
<stop offset="0.06" stop-color="#FDAD0B"/>
<stop offset="0.41" stop-color="#F46903"/>
<stop offset="0.57" stop-color="#F14F00"/>
<stop offset="1" stop-color="#EE1D42"/>
</linearGradient>
<radialGradient id="paint41_radial_3837_308927" cx="0" cy="0" r="1" gradientUnits="userSpaceOnUse" gradientTransform="translate(1845.15 949.767) scale(81.0606 81.0606)">
<stop stop-color="#FC2A70"/>
<stop offset="1" stop-color="#FC2A70" stop-opacity="0"/>
</radialGradient>
<radialGradient id="paint42_radial_3837_308927" cx="0" cy="0" r="1" gradientUnits="userSpaceOnUse" gradientTransform="translate(1579.3 843.1) rotate(8.07) scale(153.983 73.205)">
<stop stop-color="#FFE546"/>
<stop offset="1" stop-color="#FFE546" stop-opacity="0"/>
</radialGradient>
<linearGradient id="paint43_linear_3837_308927" x1="1665.44" y1="855.83" x2="1751.77" y2="812.077" gradientUnits="userSpaceOnUse">
<stop stop-color="#FFD300"/>
<stop offset="0.08" stop-color="#FFD200" stop-opacity="0.98"/>
<stop offset="0.17" stop-color="#FFCF00" stop-opacity="0.94"/>
<stop offset="0.25" stop-color="#FFCA00" stop-opacity="0.86"/>
<stop offset="0.33" stop-color="#FFC300" stop-opacity="0.75"/>
<stop offset="0.42" stop-color="#FFBB00" stop-opacity="0.61"/>
<stop offset="0.5" stop-color="#FFB000" stop-opacity="0.43"/>
<stop offset="0.58" stop-color="#FFA400" stop-opacity="0.23"/>
<stop offset="0.66" stop-color="#FF9600" stop-opacity="0"/>
</linearGradient>
<linearGradient id="paint44_linear_3837_308927" x1="1754.4" y1="640.873" x2="1787.11" y2="1014.12" gradientUnits="userSpaceOnUse">
<stop offset="0.27" stop-color="#F14F00"/>
<stop offset="0.42" stop-color="#FA9F03"/>
<stop offset="0.48" stop-color="#F99602"/>
<stop offset="0.58" stop-color="#F68001"/>
<stop offset="0.69" stop-color="#F25B00"/>
<stop offset="0.73" stop-color="#F14F00"/>
<stop offset="0.86" stop-color="#ED0B5B"/>
</linearGradient>
<radialGradient id="paint45_radial_3837_308927" cx="0" cy="0" r="1" gradientTransform="matrix(-53.4764 -50.9605 60.5364 -78.3641 1843.34 925.406)" gradientUnits="userSpaceOnUse">
<stop offset="0.52" stop-color="#F68400" stop-opacity="0"/>
<stop offset="0.56" stop-color="#F68600" stop-opacity="0.04"/>
<stop offset="0.63" stop-color="#F68E00" stop-opacity="0.14"/>
<stop offset="0.72" stop-color="#F79B00" stop-opacity="0.31"/>
<stop offset="0.83" stop-color="#F9AC00" stop-opacity="0.55"/>
<stop offset="0.94" stop-color="#FBC200" stop-opacity="0.84"/>
<stop offset="1" stop-color="#FCCE00"/>
</radialGradient>
<linearGradient id="paint46_linear_3837_308927" x1="1732.89" y1="783.105" x2="1709.79" y2="834.112" gradientUnits="userSpaceOnUse">
<stop offset="0.1" stop-color="#FDE625"/>
<stop offset="0.49" stop-color="#FBA501" stop-opacity="0.6"/>
<stop offset="0.72" stop-color="#F57800" stop-opacity="0"/>
</linearGradient>
<linearGradient id="paint47_linear_3837_308927" x1="1759.71" y1="874.93" x2="1732.48" y2="955.828" gradientUnits="userSpaceOnUse">
<stop stop-color="#DB2355" stop-opacity="0"/>
<stop offset="0.47" stop-color="#DB2355"/>
<stop offset="0.72" stop-color="#BF1F58"/>
<stop offset="1" stop-color="#8A1652"/>
</linearGradient>
<linearGradient id="paint48_linear_3837_308927" x1="1792.14" y1="872.903" x2="1751.87" y2="955.459" gradientUnits="userSpaceOnUse">
<stop stop-color="#DB2355" stop-opacity="0"/>
<stop offset="0.54" stop-color="#DB2355"/>
<stop offset="0.71" stop-color="#BF1F58"/>
<stop offset="0.94" stop-color="#8A1652"/>
</linearGradient>
<linearGradient id="paint49_linear_3837_308927" x1="1826.04" y1="943.853" x2="1763.98" y2="943.216" gradientUnits="userSpaceOnUse">
<stop stop-color="#DB2355" stop-opacity="0"/>
<stop offset="0.3" stop-color="#DB2355"/>
<stop offset="0.59" stop-color="#BF1F58"/>
<stop offset="0.92" stop-color="#8A1652"/>
</linearGradient>
<radialGradient id="paint50_radial_3837_308927" cx="0" cy="0" r="1" gradientUnits="userSpaceOnUse" gradientTransform="translate(1850.42 943.618) scale(48.9705 48.9705)">
<stop stop-color="#FC2A70"/>
<stop offset="1" stop-color="#FC2A70" stop-opacity="0"/>
</radialGradient>
<radialGradient id="paint51_radial_3837_308927" cx="0" cy="0" r="1" gradientUnits="userSpaceOnUse" gradientTransform="translate(1878.83 863.455) rotate(33.07) scale(118.568 118.568)">
<stop stop-color="#FDE625"/>
<stop offset="0.36" stop-color="#FBA501" stop-opacity="0.6"/>
<stop offset="0.7" stop-color="#F57800" stop-opacity="0.28"/>
<stop offset="1" stop-color="#F14F00" stop-opacity="0"/>
</radialGradient>
<linearGradient id="paint52_linear_3837_308927" x1="1751.75" y1="837.744" x2="1755.8" y2="926.98" gradientUnits="userSpaceOnUse">
<stop stop-color="#FCCE00"/>
<stop offset="0.09" stop-color="#FCC800" stop-opacity="0.96"/>
<stop offset="0.24" stop-color="#FDC300" stop-opacity="0.84"/>
<stop offset="0.44" stop-color="#FBB300" stop-opacity="0.66"/>
<stop offset="0.67" stop-color="#FAA100" stop-opacity="0.4"/>
<stop offset="0.94" stop-color="#F78B00" stop-opacity="0.07"/>
<stop offset="1" stop-color="#F68400" stop-opacity="0"/>
</linearGradient>
<linearGradient id="paint53_linear_3837_308927" x1="1734.56" y1="769.245" x2="1730.8" y2="780.915" gradientUnits="userSpaceOnUse">
<stop stop-color="#474599"/>
<stop offset="0.88" stop-color="#0B1339"/>
</linearGradient>
<linearGradient id="paint54_linear_3837_308927" x1="959.215" y1="817.212" x2="959.215" y2="1280.36" gradientUnits="userSpaceOnUse">
<stop stop-color="#030840" stop-opacity="0"/>
<stop offset="0.18" stop-color="#030840" stop-opacity="0.34"/>
<stop offset="0.42" stop-color="#030840" stop-opacity="0.7"/>
<stop offset="0.65" stop-color="#030840" stop-opacity="0.92"/>
<stop offset="0.85" stop-color="#030840"/>
</linearGradient>
<linearGradient id="paint55_linear_3837_308927" x1="122.045" y1="421.884" x2="187.075" y2="234.96" gradientUnits="userSpaceOnUse">
<stop stop-color="#E6E6E6"/>
<stop offset="0.16" stop-color="#AFB6E7"/>
<stop offset="0.33" stop-color="#7C8AE8"/>
<stop offset="0.41" stop-color="#6878E9"/>
<stop offset="0.5" stop-color="#6878E9" stop-opacity="0.74"/>
<stop offset="0.58" stop-color="#6878E9" stop-opacity="0.52"/>
<stop offset="0.66" stop-color="#6878E9" stop-opacity="0.33"/>
<stop offset="0.74" stop-color="#6878E9" stop-opacity="0.19"/>
<stop offset="0.82" stop-color="#6878E9" stop-opacity="0.08"/>
<stop offset="0.89" stop-color="#6878E9" stop-opacity="0.02"/>
<stop offset="0.95" stop-color="#6878E9" stop-opacity="0"/>
</linearGradient>
<clipPath id="clip0_3837_308927">
<rect width="1920" height="1080" fill="white"/>
</clipPath>
<clipPath id="clip1_3837_308927">
<rect width="321.749" height="206.784" fill="white" transform="translate(1592.98 744.045)"/>
</clipPath>
</defs>
</svg>
